# Made in Blockbench 4.11.1
mtllib skybox.mtl

o cube
v 0.0625 0.0625 0.0625
v 0.0625 0.0625 0.0625
v 0.0625 -0.0625 0.0625
v 0.0625 -0.0625 0.0625
v -0.0625 0.0625 0.0625
v -0.0625 0.0625 0.0625
v -0.0625 -0.0625 0.0625
v -0.0625 -0.0625 0.0625
vt 0 1
vt 1 1
vt 1 0
vt 0 0
vt 0 1
vt 0 1
vt 0 0.875
vt 0 0.875
vt 0 1
vt 0 1
vt 0 0.875
vt 0 0.875
vt 0 1
vt 0.125 1
vt 0.125 1
vt 0 1
vt 0 1
vt 0.125 1
vt 0.125 1
vt 0 1
vn 0 0 -1
vn 1 0 0
vn -1 0 0
vn 0 1 0
vn 0 -1 0
usemtl none
f 4/4/1 7/3/1 5/2/1 2/1/1
f 3/8/2 4/7/2 2/6/2 1/5/2
f 7/12/3 8/11/3 6/10/3 5/9/3
f 6/16/4 1/15/4 2/14/4 5/13/4
f 7/20/5 4/19/5 3/18/5 8/17/5